<svg width="104" height="24" viewBox="0 0 104 24" fill="none" xmlns="http://www.w3.org/2000/svg">
<path d="M97.5619 3.8C93.9962 3.8 91.1238 6.7 91.1238 10.3C91.1238 13.9 93.9962 16.8 97.5619 16.8C98.4533 16.8 99.3448 16.6 100.137 16.2V16.8H103.901V10.3C104 6.7 101.128 3.8 97.5619 3.8ZM97.5619 12.9C96.0762 12.9 94.9867 11.7 94.9867 10.2C94.9867 8.7 96.1752 7.5 97.5619 7.5C98.9486 7.5 100.137 8.7 100.137 10.2C100.137 11.7 99.0476 12.9 97.5619 12.9Z" fill="#4EB782"/>
<path d="M75.0781 3.8C71.5124 3.8 68.64 6.7 68.64 10.3C68.64 13.9 71.5124 16.8 75.0781 16.8C78.6438 16.8 81.5162 13.9 81.5162 10.3C81.5162 6.7 78.6438 3.8 75.0781 3.8ZM75.0781 12.9C73.5924 12.9 72.5029 11.7 72.5029 10.2C72.5029 8.7 73.6914 7.5 75.0781 7.5C76.5638 7.5 77.6533 8.7 77.6533 10.2C77.6533 11.7 76.5638 12.9 75.0781 12.9Z" fill="#4EB782"/>
<path d="M11.6876 3.8L8.12191 11.8L4.45714 3.8H0L5.84381 16.8H10.301L16.1448 3.8H11.6876Z" fill="#4EB782"/>
<path d="M83.5962 10.3V16.8H87.36V10.3C87.36 8.8 88.5486 7.6 89.9352 7.6V3.8C86.4686 3.8 83.5962 6.7 83.5962 10.3Z" fill="#4EB782"/>
<path d="M45.859 3.8C44.0762 3.8 42.4914 4.5 41.3029 5.7C40.1143 4.5 38.5295 3.8 36.7467 3.8C35.8552 3.8 34.9638 4 34.1714 4.4V3.8H30.4076V16.7H34.1714V10.2C34.1714 8.7 35.36 7.5 36.7467 7.5C38.2324 7.5 39.3219 8.7 39.3219 10.2V16.7H43.0857V10.2C43.0857 8.7 44.2743 7.5 45.661 7.5C47.1467 7.5 48.2362 8.7 48.2362 10.2V16.7H52V10.2C52.2971 6.7 49.4248 3.8 45.859 3.8Z" fill="#4EB782"/>
<path d="M21.9886 3.8C18.4229 3.8 15.5505 6.7 15.5505 10.3C15.5505 13.9 18.4229 16.8 21.9886 16.8C22.88 16.8 23.7714 16.6 24.5638 16.2V16.8H28.3276V10.3C28.4267 6.7 25.5543 3.8 21.9886 3.8ZM21.9886 12.9C20.5029 12.9 19.4133 11.7 19.4133 10.2C19.4133 8.7 20.6019 7.5 21.9886 7.5C23.4743 7.5 24.5638 8.7 24.5638 10.2C24.5638 11.7 23.4743 12.9 21.9886 12.9Z" fill="#4EB782"/>
<path d="M60.8152 16.8C64.3809 16.8 67.2533 13.9 67.2533 10.3C67.2533 6.7 64.3809 3.8 60.8152 3.8C59.9238 3.8 59.0324 4 58.24 4.4V0H54.4762V10.3C54.3771 13.9 57.2495 16.8 60.8152 16.8ZM60.8152 7.6C62.3009 7.6 63.3905 8.8 63.3905 10.3C63.3905 11.8 62.2019 13 60.8152 13C59.4286 13 58.24 11.8 58.24 10.3C58.24 8.8 59.3295 7.6 60.8152 7.6Z" fill="#4EB782"/>
<path d="M67.9467 20.7C60.9143 20.7 55.6648 17.5 55.1695 17.2L54.4762 20.7C57.1505 22 62.1029 24 67.9467 24C73.6914 24 78.7429 22 81.5162 20.7L80.8229 17.2C80.2286 17.5 74.979 20.7 67.9467 20.7Z" fill="#4EB782"/>
</svg>
